<svg width="1440" height="900" viewBox="0 0 1440 900" fill="none" xmlns="http://www.w3.org/2000/svg">
<path d="M962.044 249.773C858.174 211.444 871.19 86.2292 740.936 58.0729C610.681 29.9165 617.699 -113.982 723.125 -134.797C828.985 -125.606 1395.64 55.82 1530.78 67.5532C1824.26 14.7911 1704.62 230.527 1601.84 252.118C1499.06 273.708 1416.91 336.213 1372 160.96C1327.09 -14.2922 1115.42 306.369 962.044 249.773Z" fill="#D4A99B" fill-opacity="0.5"/>
<path d="M705.221 182.612C606.841 180.181 597.865 107.358 477.757 115.506C357.649 123.655 340.292 41.4275 430.36 10.3069C525.731 -4.0167 1057.9 -6.31937 1179.65 -24.6042C1431.22 -108.322 1360.5 35.0487 1272.9 66.1186C1185.3 97.1886 1122.71 147.47 1054.17 57.1702C985.628 -33.1297 850.492 186.202 705.221 182.612Z" fill="#EEDBC9" fill-opacity="0.54"/>
<path d="M1088.05 655.182C1238.78 629.864 1290.72 764.917 1468.9 712.975C1647.08 661.033 1716.7 811.331 1596.24 897.601C1458.89 953.703 651.646 1119.89 476.313 1191.51C138.165 1426.41 170.201 1133.64 286.931 1048.22C403.662 962.795 472.302 848.628 623.925 998.633C775.547 1148.64 865.47 692.567 1088.05 655.182Z" fill="#89A2B5" fill-opacity="0.57"/>
<path d="M809.887 676.448C962.732 675.796 992.19 817.464 1176.41 794.967C1360.64 772.471 1405.08 932.037 1272.28 997.729C1127.67 1030.92 304.187 1064.61 119.593 1106.98C-252.041 1284.21 -173.162 1000.45 -44.1722 934.997C84.8175 869.54 170.989 767.951 296.406 940.467C421.823 1112.98 584.193 677.41 809.887 676.448Z" fill="#575C87" fill-opacity="0.56"/>
</svg>
