<svg width="1440" height="900" viewBox="0 0 1440 900" fill="none" xmlns="http://www.w3.org/2000/svg">
<path d="M979.044 193.773C875.174 155.444 888.19 30.2292 757.936 2.07289C627.681 -26.0835 634.699 -169.982 740.125 -190.797C845.985 -181.606 1412.64 -0.180017 1547.78 11.5532C1841.26 -41.2089 1721.62 174.527 1618.84 196.118C1516.06 217.708 1433.91 280.213 1389 104.96C1344.09 -70.2922 1132.42 250.369 979.044 193.773Z" fill="#D4A99B" fill-opacity="0.86"/>
<path d="M686.221 149.612C587.841 147.181 578.865 74.3576 458.757 82.5064C338.649 90.6552 321.292 8.42753 411.36 -22.693C506.731 -37.0167 1038.9 -39.3193 1160.65 -57.6042C1412.22 -141.322 1341.5 2.04872 1253.9 33.1187C1166.3 64.1886 1103.71 114.47 1035.17 24.1702C966.628 -66.1297 831.492 153.202 686.221 149.612Z" fill="#EEDBC9" fill-opacity="0.77"/>
<path d="M1046.05 825.182C1196.78 799.864 1248.72 934.917 1426.9 882.975C1605.08 831.033 1674.7 981.331 1554.24 1067.6C1416.89 1123.7 609.646 1289.89 434.313 1361.51C96.1654 1596.41 128.201 1303.64 244.931 1218.22C361.662 1132.8 430.302 1018.63 581.925 1168.63C733.547 1318.64 823.47 862.567 1046.05 825.182Z" fill="#89A2B5" fill-opacity="0.88"/>
<path d="M493.887 822.448C646.732 821.796 676.19 963.464 860.415 940.967C1044.64 918.471 1089.08 1078.04 956.277 1143.73C811.673 1176.92 -11.8125 1210.61 -196.407 1252.98C-568.041 1430.21 -489.162 1146.45 -360.172 1081C-231.183 1015.54 -145.011 913.951 -19.5943 1086.47C105.823 1258.98 268.193 823.41 493.887 822.448Z" fill="#575C87" fill-opacity="0.85"/>
</svg>
