<svg width="1440" height="1915" viewBox="0 0 1440 1915" fill="none" xmlns="http://www.w3.org/2000/svg">
<path d="M753.931 229.716C602.54 197.52 607.591 69.0288 419.876 48.9467C232.162 28.8646 226.706 -118.274 373.97 -146.465C525.063 -144.1 1348 3.33669 1540.88 6.35601C1951.38 -66.8395 1804.83 160.972 1661.4 189.779C1517.97 218.586 1408.18 287.73 1325.73 112.069C1243.28 -63.5922 977.479 277.257 753.931 229.716Z" fill="#89A2B5" fill-opacity="0.57"/>
<path d="M1054.91 325.311C922.326 249.261 967.847 111.91 797.161 39.0327C626.474 -33.8444 668 -194.194 815.845 -184.468C957.61 -140.707 1687.06 242.915 1868.03 298.778C2278.44 331.705 2067.95 537.701 1923.53 529.685C1779.1 521.669 1653.62 566.381 1631.57 354.237C1609.52 142.094 1250.69 437.607 1054.91 325.311Z" fill="#575C87" fill-opacity="0.56"/>
<path d="M43.4717 1804.86C197.896 1794.42 228.186 1919.39 414.234 1887.36C600.282 1855.32 645.78 1995.36 511.844 2062.76C365.867 2101.81 -466.014 2185.11 -652.361 2234.97C-1027.18 2417.67 -948.543 2158.46 -818.462 2091.51C-688.382 2024.57 -601.697 1928.03 -474.339 2074.44C-346.981 2220.84 -184.554 1820.29 43.4717 1804.86Z" fill="#89A2B5" fill-opacity="0.57"/>
<path d="M33.2905 1362.93C116.087 1497.81 -29.6948 1673.83 94.8651 1813.42C219.425 1953.02 61.2726 2161.27 -84.9554 2112.99C-200.447 2019.85 -680.954 1325.12 -828.384 1206.23C-1230.05 1064.14 -864.033 833.857 -720.121 879.003C-576.209 924.148 -414.07 893.087 -543.525 1186.86C-672.979 1480.64 -88.9684 1163.77 33.2905 1362.93Z" fill="#575C87" fill-opacity="0.56"/>
</svg>
