<svg width="821" height="732" viewBox="0 0 821 732" fill="none" xmlns="http://www.w3.org/2000/svg">
<path d="M278.644 235.063C179.699 292.577 90.4364 200.831 -18.0763 285.898C-126.589 370.965 -234.444 271.832 -180.71 174.628C-103.225 96.5902 414.929 -235.164 513.842 -334.783C667.475 -602.003 756.713 -366.782 705.341 -271.173C653.97 -175.564 648.294 -69.7313 481.438 -148.037C314.582 -226.343 424.75 150.137 278.644 235.063Z" fill="#D4A99B" fill-opacity="0.5"/>
<path d="M171.971 421.226C131.51 514.297 2.8781 498.233 -27.3872 615.619C-57.6526 733.004 -205.559 721.759 -225.902 625.273C-215.385 529.408 -23.114 20.7303 -9.68797 -101.646C-60.9913 -370.061 159.654 -254.068 180.822 -159.958C201.99 -65.8489 265.439 10.8952 84.768 45.7686C-95.9031 80.642 231.715 283.795 171.971 421.226Z" fill="#EEDBC9" fill-opacity="0.54"/>
</svg>
