<svg width="198" height="58" viewBox="0 0 198 58" fill="none" xmlns="http://www.w3.org/2000/svg">
<g filter="url(#filter0_d_50_67)">
<rect x="4" width="190" height="50" rx="5" fill="#89A2B5" fill-opacity="0.57" shape-rendering="crispEdges"/>
</g>
<path d="M53.7102 22.0994C53.5919 21.7159 53.4285 21.3726 53.2202 21.0696C53.0166 20.7618 52.7704 20.4991 52.4815 20.2812C52.1974 20.0634 51.8707 19.9001 51.5014 19.7912C51.1321 19.6776 50.7296 19.6207 50.294 19.6207C49.5128 19.6207 48.8168 19.8172 48.206 20.2102C47.5952 20.6032 47.1146 21.1809 46.7642 21.9432C46.4186 22.7008 46.2457 23.6241 46.2457 24.7131C46.2457 25.8116 46.4186 26.742 46.7642 27.5043C47.1098 28.2666 47.5904 28.8466 48.206 29.2443C48.8215 29.6373 49.5365 29.8338 50.3509 29.8338C51.0895 29.8338 51.7287 29.6918 52.2685 29.4077C52.813 29.1236 53.232 28.7211 53.5256 28.2003C53.8191 27.6747 53.9659 27.0592 53.9659 26.3537L54.5625 26.446H50.6136V24.3864H56.5156V26.1335C56.5156 27.3788 56.2505 28.456 55.7202 29.3651C55.1899 30.2741 54.4607 30.9749 53.5327 31.4673C52.6046 31.955 51.5393 32.1989 50.3366 32.1989C48.9967 32.1989 47.8201 31.8982 46.8068 31.2969C45.7983 30.6908 45.0099 29.8314 44.4418 28.7188C43.8783 27.6013 43.5966 26.2756 43.5966 24.7415C43.5966 23.5672 43.7623 22.5185 44.0938 21.5952C44.4299 20.6719 44.8987 19.8883 45.5 19.2443C46.1013 18.5956 46.8068 18.1032 47.6165 17.767C48.4261 17.4261 49.3068 17.2557 50.2585 17.2557C51.0634 17.2557 51.8139 17.3741 52.5099 17.6108C53.206 17.8428 53.8239 18.1742 54.3636 18.6051C54.9081 19.036 55.3556 19.5473 55.706 20.1392C56.0563 20.7311 56.286 21.3845 56.3949 22.0994H53.7102ZM59.6335 32V21.0909H62.2045V32H59.6335ZM60.9261 19.5426C60.5189 19.5426 60.1686 19.4077 59.875 19.1378C59.5814 18.8632 59.4347 18.5341 59.4347 18.1506C59.4347 17.7623 59.5814 17.4332 59.875 17.1634C60.1686 16.8887 60.5189 16.7514 60.9261 16.7514C61.3381 16.7514 61.6884 16.8887 61.9773 17.1634C62.2708 17.4332 62.4176 17.7623 62.4176 18.1506C62.4176 18.5341 62.2708 18.8632 61.9773 19.1378C61.6884 19.4077 61.3381 19.5426 60.9261 19.5426ZM70.2958 21.0909V23.0795H64.0245V21.0909H70.2958ZM65.5728 18.4773H68.1438V28.7188C68.1438 29.0644 68.1959 29.3295 68.3001 29.5142C68.409 29.6941 68.551 29.8172 68.7262 29.8835C68.9014 29.9498 69.0955 29.983 69.3086 29.983C69.4696 29.983 69.6164 29.9711 69.7489 29.9474C69.8862 29.9238 69.9904 29.9025 70.0614 29.8835L70.4947 31.8935C70.3574 31.9408 70.1609 31.9929 69.9052 32.0497C69.6542 32.1065 69.3465 32.1397 68.9819 32.1491C68.3379 32.1681 67.7579 32.071 67.2418 31.858C66.7257 31.6402 66.3162 31.304 66.0131 30.8494C65.7148 30.3949 65.5681 29.8267 65.5728 29.1449V18.4773ZM75.2514 25.608V32H72.6804V17.4545H75.1946V22.9446H75.3224C75.5781 22.3291 75.9735 21.8437 76.5085 21.4886C77.0483 21.1288 77.7348 20.9489 78.5682 20.9489C79.3258 20.9489 79.9863 21.1075 80.5497 21.4247C81.1132 21.742 81.5488 22.206 81.8565 22.8168C82.169 23.4276 82.3253 24.1733 82.3253 25.054V32H79.7543V25.4517C79.7543 24.7178 79.5649 24.1473 79.1861 23.7401C78.812 23.3281 78.2865 23.1222 77.6094 23.1222C77.1548 23.1222 76.7476 23.2216 76.3878 23.4205C76.0327 23.6146 75.7533 23.8963 75.5497 24.2656C75.3509 24.6349 75.2514 25.0824 75.2514 25.608ZM91.8991 27.4119V21.0909H94.4702V32H91.9773V30.0611H91.8636C91.6174 30.6719 91.2126 31.1714 90.6491 31.5597C90.0904 31.9479 89.4015 32.142 88.5824 32.142C87.8674 32.142 87.2353 31.9834 86.6861 31.6662C86.1416 31.3442 85.7154 30.8778 85.4077 30.267C85.0999 29.6515 84.946 28.9081 84.946 28.0369V21.0909H87.517V27.6392C87.517 28.3305 87.7064 28.8797 88.0852 29.2869C88.464 29.6941 88.9612 29.8977 89.5767 29.8977C89.9555 29.8977 90.3224 29.8054 90.6776 29.6207C91.0327 29.4361 91.3239 29.1615 91.5511 28.7969C91.7831 28.4276 91.8991 27.9659 91.8991 27.4119ZM97.2276 32V17.4545H99.7987V22.8949H99.9052C100.038 22.6297 100.225 22.348 100.466 22.0497C100.708 21.7467 101.034 21.4886 101.446 21.2756C101.858 21.0578 102.384 20.9489 103.023 20.9489C103.866 20.9489 104.626 21.1643 105.303 21.5952C105.985 22.0213 106.525 22.6534 106.922 23.4915C107.325 24.3248 107.526 25.3475 107.526 26.5597C107.526 27.7576 107.329 28.7756 106.936 29.6136C106.543 30.4517 106.008 31.0909 105.331 31.5312C104.654 31.9716 103.887 32.1918 103.03 32.1918C102.405 32.1918 101.887 32.0876 101.475 31.8793C101.063 31.6709 100.731 31.42 100.48 31.1264C100.234 30.8281 100.042 30.5464 99.9052 30.2812H99.756V32H97.2276ZM99.7489 26.5455C99.7489 27.2509 99.8484 27.8688 100.047 28.3991C100.251 28.9295 100.542 29.3437 100.921 29.642C101.304 29.9356 101.768 30.0824 102.313 30.0824C102.881 30.0824 103.357 29.9309 103.74 29.6278C104.124 29.3201 104.413 28.901 104.607 28.3707C104.806 27.8357 104.905 27.2273 104.905 26.5455C104.905 25.8684 104.808 25.267 104.614 24.7415C104.42 24.2159 104.131 23.804 103.748 23.5057C103.364 23.2074 102.886 23.0582 102.313 23.0582C101.764 23.0582 101.297 23.2027 100.914 23.4915C100.53 23.7803 100.239 24.1851 100.04 24.706C99.846 25.2268 99.7489 25.84 99.7489 26.5455ZM114.786 32V17.4545H117.421V29.7912H123.827V32H114.786ZM126.001 32V21.0909H128.572V32H126.001ZM127.293 19.5426C126.886 19.5426 126.536 19.4077 126.242 19.1378C125.949 18.8632 125.802 18.5341 125.802 18.1506C125.802 17.7623 125.949 17.4332 126.242 17.1634C126.536 16.8887 126.886 16.7514 127.293 16.7514C127.705 16.7514 128.056 16.8887 128.344 17.1634C128.638 17.4332 128.785 17.7623 128.785 18.1506C128.785 18.5341 128.638 18.8632 128.344 19.1378C128.056 19.4077 127.705 19.5426 127.293 19.5426ZM133.787 25.608V32H131.216V21.0909H133.673V22.9446H133.801C134.052 22.3338 134.452 21.8485 135.001 21.4886C135.555 21.1288 136.239 20.9489 137.054 20.9489C137.806 20.9489 138.462 21.1098 139.021 21.4318C139.584 21.7538 140.02 22.2202 140.328 22.831C140.64 23.4418 140.794 24.1828 140.789 25.054V32H138.218V25.4517C138.218 24.7225 138.029 24.152 137.65 23.7401C137.276 23.3281 136.758 23.1222 136.095 23.1222C135.645 23.1222 135.245 23.2216 134.895 23.4205C134.549 23.6146 134.277 23.8963 134.078 24.2656C133.884 24.6349 133.787 25.0824 133.787 25.608ZM145.747 28.5767L145.74 25.473H146.152L150.072 21.0909H153.076L148.254 26.4602H147.721L145.747 28.5767ZM143.403 32V17.4545H145.974V32H143.403ZM150.25 32L146.699 27.0355L148.431 25.2244L153.325 32H150.25Z" fill="black"/>
<defs>
<filter id="filter0_d_50_67" x="0" y="0" width="198" height="58" filterUnits="userSpaceOnUse" color-interpolation-filters="sRGB">
<feFlood flood-opacity="0" result="BackgroundImageFix"/>
<feColorMatrix in="SourceAlpha" type="matrix" values="0 0 0 0 0 0 0 0 0 0 0 0 0 0 0 0 0 0 127 0" result="hardAlpha"/>
<feOffset dy="4"/>
<feGaussianBlur stdDeviation="2"/>
<feComposite in2="hardAlpha" operator="out"/>
<feColorMatrix type="matrix" values="0 0 0 0 0 0 0 0 0 0 0 0 0 0 0 0 0 0 0.25 0"/>
<feBlend mode="normal" in2="BackgroundImageFix" result="effect1_dropShadow_50_67"/>
<feBlend mode="normal" in="SourceGraphic" in2="effect1_dropShadow_50_67" result="shape"/>
</filter>
</defs>
</svg>
