<svg width="198" height="58" viewBox="0 0 198 58" fill="none" xmlns="http://www.w3.org/2000/svg">
<g filter="url(#filter0_d_50_66)">
<rect x="4" width="190" height="50" rx="5" fill="#89A2B5" fill-opacity="0.57" shape-rendering="crispEdges"/>
</g>
<path d="M66.6905 32V17.4545H72.1451C73.2625 17.4545 74.2 17.6487 74.9576 18.0369C75.7199 18.4252 76.2952 18.9697 76.6834 19.6705C77.0764 20.3665 77.2729 21.1785 77.2729 22.1065C77.2729 23.0393 77.074 23.849 76.6763 24.5355C76.2833 25.2173 75.7033 25.7453 74.9363 26.1193C74.1692 26.4886 73.227 26.6733 72.1096 26.6733H68.2246V24.4858H71.7544C72.4078 24.4858 72.9429 24.3958 73.3596 24.2159C73.7762 24.0312 74.084 23.7637 74.2828 23.4134C74.4864 23.0582 74.5882 22.6226 74.5882 22.1065C74.5882 21.5904 74.4864 21.1501 74.2828 20.7855C74.0792 20.4162 73.7691 20.1368 73.3525 19.9474C72.9358 19.7533 72.3984 19.6562 71.7402 19.6562H69.3255V32H66.6905ZM74.2047 25.4091L77.8056 32H74.8652L71.3283 25.4091H74.2047ZM84.258 32.2131C83.1642 32.2131 82.2196 31.9858 81.4242 31.5312C80.6335 31.072 80.025 30.4233 79.5989 29.5852C79.1728 28.7424 78.9597 27.7505 78.9597 26.6094C78.9597 25.4872 79.1728 24.5024 79.5989 23.6548C80.0298 22.8026 80.6311 22.1397 81.4029 21.6662C82.1747 21.188 83.0814 20.9489 84.123 20.9489C84.7954 20.9489 85.4299 21.0578 86.0265 21.2756C86.6278 21.4886 87.1581 21.8201 87.6174 22.2699C88.0814 22.7197 88.446 23.2926 88.7111 23.9886C88.9763 24.6799 89.1088 25.5038 89.1088 26.4602V27.2486H80.1671V25.5156H86.6444C86.6396 25.0232 86.5331 24.5852 86.3248 24.2017C86.1164 23.8134 85.8252 23.508 85.4512 23.2855C85.0819 23.063 84.651 22.9517 84.1586 22.9517C83.633 22.9517 83.1713 23.0795 82.7736 23.3352C82.3759 23.5862 82.0658 23.9176 81.8432 24.3295C81.6254 24.7367 81.5141 25.1842 81.5094 25.6719V27.1847C81.5094 27.8191 81.6254 28.3636 81.8574 28.8182C82.0894 29.268 82.4138 29.6136 82.8304 29.8551C83.2471 30.0919 83.7348 30.2102 84.2935 30.2102C84.6676 30.2102 85.0061 30.1581 85.3091 30.054C85.6122 29.9451 85.8749 29.7865 86.0975 29.5781C86.32 29.3698 86.4881 29.1117 86.6017 28.804L89.0023 29.0739C88.8508 29.7083 88.562 30.2623 88.1358 30.7358C87.7144 31.2045 87.1747 31.5691 86.5165 31.8295C85.8584 32.0852 85.1055 32.2131 84.258 32.2131ZM91.2839 36.0909V21.0909H93.8123V22.8949H93.9615C94.094 22.6297 94.2811 22.348 94.5225 22.0497C94.764 21.7467 95.0907 21.4886 95.5027 21.2756C95.9146 21.0578 96.4402 20.9489 97.0794 20.9489C97.9222 20.9489 98.6821 21.1643 99.3592 21.5952C100.041 22.0213 100.581 22.6534 100.979 23.4915C101.381 24.3248 101.582 25.3475 101.582 26.5597C101.582 27.7576 101.386 28.7756 100.993 29.6136C100.6 30.4517 100.065 31.0909 99.3876 31.5312C98.7105 31.9716 97.9435 32.1918 97.0865 32.1918C96.4615 32.1918 95.943 32.0876 95.5311 31.8793C95.1191 31.6709 94.7877 31.42 94.5368 31.1264C94.2905 30.8281 94.0988 30.5464 93.9615 30.2812H93.8549V36.0909H91.2839ZM93.8052 26.5455C93.8052 27.2509 93.9047 27.8688 94.1035 28.3991C94.3071 28.9295 94.5983 29.3437 94.9771 29.642C95.3606 29.9356 95.8246 30.0824 96.3691 30.0824C96.9373 30.0824 97.4132 29.9309 97.7967 29.6278C98.1802 29.3201 98.469 28.901 98.6632 28.3707C98.862 27.8357 98.9615 27.2273 98.9615 26.5455C98.9615 25.8684 98.8644 25.267 98.6703 24.7415C98.4761 24.2159 98.1873 23.804 97.8038 23.5057C97.4203 23.2074 96.9421 23.0582 96.3691 23.0582C95.8199 23.0582 95.3535 23.2027 94.97 23.4915C94.5865 23.7803 94.2953 24.1851 94.0964 24.706C93.9023 25.2268 93.8052 25.84 93.8052 26.5455ZM108.542 32.2131C107.477 32.2131 106.554 31.9787 105.773 31.5099C104.991 31.0412 104.385 30.3854 103.954 29.5426C103.528 28.6998 103.315 27.715 103.315 26.5881C103.315 25.4612 103.528 24.474 103.954 23.6264C104.385 22.7789 104.991 22.1207 105.773 21.652C106.554 21.1832 107.477 20.9489 108.542 20.9489C109.608 20.9489 110.531 21.1832 111.312 21.652C112.094 22.1207 112.697 22.7789 113.123 23.6264C113.554 24.474 113.77 25.4612 113.77 26.5881C113.77 27.715 113.554 28.6998 113.123 29.5426C112.697 30.3854 112.094 31.0412 111.312 31.5099C110.531 31.9787 109.608 32.2131 108.542 32.2131ZM108.557 30.1534C109.134 30.1534 109.617 29.9948 110.006 29.6776C110.394 29.3556 110.683 28.9247 110.872 28.3849C111.066 27.8452 111.163 27.2438 111.163 26.581C111.163 25.9134 111.066 25.3097 110.872 24.7699C110.683 24.2254 110.394 23.7921 110.006 23.4702C109.617 23.1482 109.134 22.9872 108.557 22.9872C107.965 22.9872 107.472 23.1482 107.079 23.4702C106.691 23.7921 106.4 24.2254 106.206 24.7699C106.016 25.3097 105.922 25.9134 105.922 26.581C105.922 27.2438 106.016 27.8452 106.206 28.3849C106.4 28.9247 106.691 29.3556 107.079 29.6776C107.472 29.9948 107.965 30.1534 108.557 30.1534ZM115.952 32V21.0909H118.445V22.9091H118.558C118.757 22.2794 119.098 21.794 119.581 21.4531C120.069 21.1075 120.625 20.9347 121.25 20.9347C121.392 20.9347 121.551 20.9418 121.726 20.956C121.906 20.9654 122.055 20.982 122.173 21.0057V23.3707C122.065 23.3329 121.892 23.2997 121.655 23.2713C121.423 23.2382 121.198 23.2216 120.98 23.2216C120.512 23.2216 120.09 23.3234 119.716 23.527C119.347 23.7259 119.056 24.0028 118.843 24.358C118.629 24.7131 118.523 25.1226 118.523 25.5866V32H115.952ZM129.915 21.0909V23.0795H123.644V21.0909H129.915ZM125.192 18.4773H127.763V28.7188C127.763 29.0644 127.815 29.3295 127.919 29.5142C128.028 29.6941 128.17 29.8172 128.345 29.8835C128.521 29.9498 128.715 29.983 128.928 29.983C129.089 29.983 129.235 29.9711 129.368 29.9474C129.505 29.9238 129.61 29.9025 129.681 29.8835L130.114 31.8935C129.977 31.9408 129.78 31.9929 129.524 32.0497C129.273 32.1065 128.966 32.1397 128.601 32.1491C127.957 32.1681 127.377 32.071 126.861 31.858C126.345 31.6402 125.935 31.304 125.632 30.8494C125.334 30.3949 125.187 29.8267 125.192 29.1449V18.4773Z" fill="black"/>
<defs>
<filter id="filter0_d_50_66" x="0" y="0" width="198" height="58" filterUnits="userSpaceOnUse" color-interpolation-filters="sRGB">
<feFlood flood-opacity="0" result="BackgroundImageFix"/>
<feColorMatrix in="SourceAlpha" type="matrix" values="0 0 0 0 0 0 0 0 0 0 0 0 0 0 0 0 0 0 127 0" result="hardAlpha"/>
<feOffset dy="4"/>
<feGaussianBlur stdDeviation="2"/>
<feComposite in2="hardAlpha" operator="out"/>
<feColorMatrix type="matrix" values="0 0 0 0 0 0 0 0 0 0 0 0 0 0 0 0 0 0 0.25 0"/>
<feBlend mode="normal" in2="BackgroundImageFix" result="effect1_dropShadow_50_66"/>
<feBlend mode="normal" in="SourceGraphic" in2="effect1_dropShadow_50_66" result="shape"/>
</filter>
</defs>
</svg>
